<svg version="1.1" id="Layer_1" xmlns="http://www.w3.org/2000/svg" xmlns:xlink="http://www.w3.org/1999/xlink" x="0px" y="0px"
	 width="100%" viewBox="0 0 704 512" enable-background="new 0 0 704 512" xml:space="preserve">
<path fill="#F84C1E" opacity="1.000000" stroke="none" 
	d="
M148.167084,389.067810 
	C130.390396,384.192261 113.621231,377.941498 97.366196,370.034058 
	C62.104549,352.880615 61.180164,307.758789 84.380669,284.582855 
	C105.165115,263.820404 129.841888,254.687805 159.070251,257.510529 
	C164.212082,258.007080 169.327698,258.520752 174.376678,259.589569 
	C177.719894,260.297302 179.930405,259.068726 182.004379,256.337646 
	C193.346390,241.402222 195.347656,224.420303 193.243408,206.515640 
	C191.846695,194.631348 186.628922,184.342072 179.939728,174.587219 
	C170.701767,161.115540 161.626892,147.499771 157.788132,131.254639 
	C154.328949,116.615776 160.010071,103.757698 173.302200,96.865593 
	C184.353683,91.135292 196.250870,87.718460 208.618011,86.830582 
	C228.377472,85.411980 248.197037,84.158371 268.004333,84.872269 
	C285.116211,85.489021 302.214783,86.928902 318.335297,93.731911 
	C347.042236,105.846497 360.611969,127.928223 361.296539,158.550781 
	C361.460205,165.872726 361.288818,173.175064 360.390381,180.483948 
	C359.490601,187.803894 357.536987,194.781067 354.538788,201.959534 
	C364.149048,202.915558 373.423096,202.394333 382.579590,203.695694 
	C399.248840,206.064819 415.410706,209.394699 427.703522,222.422211 
	C443.960419,239.650742 445.525330,259.640167 438.709595,281.018280 
	C431.175964,304.648041 415.623596,322.754456 397.546539,338.984833 
	C396.577362,339.854980 395.254272,340.383972 394.850891,341.868286 
	C395.327850,343.572052 397.001465,343.815765 398.286377,344.395111 
	C422.766937,355.431976 447.531921,365.527252 474.445312,369.193726 
	C497.977997,372.399658 521.574524,372.593445 545.189514,371.053345 
	C574.232849,369.159241 600.034058,356.752380 626.098328,345.320831 
	C629.301819,343.915771 632.430176,342.319824 635.696106,341.083710 
	C638.080017,340.181427 640.412720,340.497833 641.543884,343.233002 
	C642.597046,345.779510 641.178589,347.542206 639.089783,348.516693 
	C610.603271,361.805786 582.591675,376.289124 550.492554,379.463257 
	C518.974060,382.580017 487.698975,381.783417 456.659821,375.332642 
	C433.008392,370.417297 411.091431,360.626465 389.244232,350.724884 
	C386.379608,349.426575 384.154816,349.273468 381.437042,351.210541 
	C357.139374,368.528961 329.410309,377.829834 300.922943,385.259735 
	C282.897949,389.960876 264.734283,394.141266 246.164780,395.942047 
	C230.252350,397.485138 214.306381,397.717804 198.291229,396.636322 
	C181.475021,395.500763 164.908707,393.201935 148.167084,389.067810 
M313.174438,305.210297 
	C335.082275,315.369446 357.028137,325.448273 378.858032,335.772186 
	C382.228577,337.366180 384.419830,336.954651 387.319336,334.781708 
	C401.656189,324.037323 413.235992,310.859039 422.602234,295.684265 
	C429.725708,284.143097 434.468262,271.508820 434.408234,258.004547 
	C434.306702,235.152573 419.175781,220.618698 401.900696,215.529541 
	C386.773590,211.073166 371.164398,210.256638 355.469757,210.230438 
	C351.481873,210.223785 349.139954,211.609192 346.936615,214.864182 
	C335.076660,232.385086 318.647339,243.802200 298.466248,249.733612 
	C290.478149,252.081390 282.246155,253.669647 273.892700,251.231400 
	C264.729309,248.556732 261.570923,240.092529 266.617401,231.907562 
	C269.970276,226.469437 274.892792,222.797409 280.457489,219.993622 
	C298.341705,210.982666 317.387512,205.838379 337.234589,203.775253 
	C342.980621,203.177948 347.013855,201.292984 348.509949,195.385437 
	C349.121185,192.971771 350.076721,190.646454 350.717255,188.238815 
	C353.585785,177.456329 352.963654,166.441071 352.716553,155.470184 
	C352.084656,127.417572 337.026184,107.635574 310.182068,99.166611 
	C296.209686,94.758507 281.756805,93.448662 267.322296,93.491798 
	C246.529236,93.553925 225.687988,93.530624 204.950577,95.414627 
	C194.453171,96.368317 184.316437,99.238091 174.993027,104.312515 
	C167.307053,108.495735 162.294159,117.685318 163.537338,124.931274 
	C164.295288,129.349091 165.391342,133.696472 167.119125,137.880707 
	C171.991089,149.679276 178.729172,160.397705 186.438416,170.464264 
	C205.572433,195.449020 207.288071,233.982285 189.203537,259.929840 
	C188.858307,260.425201 188.749588,261.085388 188.290314,262.308258 
	C231.148438,272.848816 272.399963,287.192322 313.174438,305.210297 
M198.149902,274.473145 
	C193.627411,273.366211 189.055176,272.424835 184.602142,271.086792 
	C182.149490,270.349792 180.585236,270.910706 178.915802,272.723175 
	C165.426178,287.368774 149.250198,298.114899 131.603043,307.315582 
	C120.731895,312.983490 111.564301,312.806183 101.792023,306.279724 
	C96.699791,302.878815 91.437141,299.733124 86.325882,296.518982 
	C71.366852,312.533722 72.995628,345.537750 94.759758,359.089203 
	C103.300484,364.407043 112.481865,368.309662 121.921875,371.628265 
	C145.727722,379.997070 170.067368,385.518707 195.397964,386.991364 
	C215.759064,388.175140 235.943222,387.691315 256.105438,384.818909 
	C274.754242,382.162109 292.952454,377.459839 310.994415,372.248962 
	C330.698944,366.557922 350.051697,359.817444 367.544250,348.731628 
	C369.582306,347.440002 371.988312,346.466003 373.270264,343.536713 
	C364.770111,339.548706 356.327454,335.706055 347.986145,331.654633 
	C299.960175,308.327972 250.608734,288.484802 198.149902,274.473145 
M144.207108,292.677399 
	C154.491608,286.295380 163.455872,278.469788 171.466537,268.946899 
	C147.139496,259.585327 99.947800,273.046631 90.870209,291.510040 
	C97.517052,296.138306 104.163139,300.815857 111.575912,304.281067 
	C115.397675,306.067657 119.244804,306.466949 123.069855,304.375458 
	C129.923981,300.627686 136.749084,296.826813 144.207108,292.677399 
M299.805725,220.395477 
	C292.036346,222.906998 284.263885,225.509323 277.679474,230.498749 
	C274.290131,233.067047 269.922699,236.058380 271.609680,240.965714 
	C273.371613,246.091202 278.719727,245.263046 282.888855,244.871338 
	C304.995361,242.794373 322.220490,231.710770 336.369507,215.205917 
	C337.070465,214.388290 338.130768,213.608139 337.888184,211.961136 
	C325.102081,213.244110 312.754486,216.324738 299.805725,220.395477 
z"/>
<path fill="#F84C1E" opacity="1.000000" stroke="none" 
	d="
M444.151367,342.362305 
	C440.777557,342.858978 436.540680,345.210693 435.505188,341.171997 
	C434.357361,336.695129 439.290405,337.290619 442.104462,336.586395 
	C449.679352,334.690704 457.308289,333.007568 464.868378,331.056519 
	C480.961853,326.903290 487.459442,312.042389 485.305115,296.841125 
	C484.042419,287.931335 480.544495,279.969696 475.099396,272.764496 
	C471.856689,268.473541 473.507721,265.256500 478.879852,264.729340 
	C479.705261,264.648346 480.545593,264.671967 481.376801,264.704803 
	C510.536560,265.856506 534.617615,291.045685 534.254883,320.110046 
	C534.133484,329.840759 529.875488,338.066620 523.892761,346.275238 
	C532.063049,347.581421 538.948120,345.224274 544.499756,340.390747 
	C561.333984,325.733856 571.182373,306.991943 574.592773,285.009369 
	C575.912720,276.501862 579.540527,273.461670 587.725098,275.473846 
	C604.862000,279.686829 612.797913,293.115723 608.407410,310.531006 
	C608.109985,311.710876 608.035278,312.634247 608.775024,313.784515 
	C615.462585,324.182312 615.630371,325.227692 612.988831,335.818451 
	C613.988037,336.891266 615.192627,335.991211 616.288635,336.135956 
	C618.257080,336.395844 619.925354,337.085632 620.143860,339.318604 
	C620.381531,341.747864 619.041992,343.247314 616.702454,343.302734 
	C607.839050,343.512756 600.725037,348.038391 593.239929,352.041473 
	C584.062683,356.949524 573.895264,357.840210 563.613220,357.257996 
	C560.790466,357.098175 558.119385,356.159302 557.410400,353.160950 
	C556.690430,350.116119 558.897949,348.203522 561.222046,346.761658 
	C567.084351,343.124695 573.931274,343.154816 580.409241,341.857941 
	C586.432495,340.652100 592.523682,339.787720 598.553223,338.610443 
	C605.076050,337.336853 609.703796,328.416229 606.922668,322.503296 
	C605.434204,319.338593 603.413818,317.037781 599.576782,319.712433 
	C599.046570,320.082001 598.349915,320.212067 597.731567,320.456177 
	C594.834900,321.599731 591.862427,321.845642 590.393799,318.622803 
	C588.909241,315.365173 591.442322,313.436432 593.837097,311.769897 
	C594.241699,311.488342 594.713501,311.193207 595.183533,311.133270 
	C598.783142,310.674500 602.007812,309.913116 603.112244,305.648163 
	C604.312500,301.013184 603.763611,296.728546 601.255310,292.722778 
	C597.839111,287.266998 592.892761,283.800385 586.792053,281.867340 
	C583.312683,280.764923 581.591187,281.604645 581.164917,285.586304 
	C579.114746,304.735291 570.800964,321.318878 558.978027,336.092773 
	C548.664124,348.980896 535.621521,356.323151 518.343933,352.183197 
	C516.278259,351.688263 514.820251,352.649658 513.205688,353.473877 
	C500.086365,360.171326 486.272644,363.905426 471.429626,363.346100 
	C469.254028,363.264099 467.150055,363.046783 465.033752,362.469452 
	C451.994812,358.912323 449.367218,350.066101 459.031403,339.310760 
	C453.736206,340.406281 449.155670,341.353912 444.151367,342.362305 
M511.566864,283.902466 
	C502.853394,278.279114 493.155212,274.996582 482.346588,271.163208 
	C489.389069,281.859772 492.927307,292.411163 492.183868,304.108521 
	C491.418762,316.147339 486.280701,325.973419 475.764618,333.845703 
	C487.659637,333.380402 497.615997,336.420166 507.333008,340.593536 
	C515.533936,344.115784 517.080078,343.611206 522.067566,335.928680 
	C523.147156,334.265747 524.030090,332.439789 524.764771,330.593842 
	C530.489075,316.209778 524.847290,295.608826 511.566864,283.902466 
M464.954498,344.325836 
	C462.312164,345.837891 459.341370,347.496826 459.978577,350.996124 
	C460.600922,354.414093 463.953705,354.908142 466.872101,355.809967 
	C471.723694,357.309235 476.488861,356.064758 481.201721,355.571625 
	C489.856720,354.665985 498.176208,352.303375 506.514221,347.940826 
	C492.832458,341.094086 479.656860,337.908081 464.954498,344.325836 
z"/>
</svg>